<?xml version="1.0" encoding="utf-8"?>
<!-- Generator: Adobe Illustrator 17.0.0, SVG Export Plug-In . SVG Version: 6.00 Build 0)  -->
<!DOCTYPE svg PUBLIC "-//W3C//DTD SVG 1.1//EN" "http://www.w3.org/Graphics/SVG/1.1/DTD/svg11.dtd">
<svg version="1.1" id="Layer_1" xmlns="http://www.w3.org/2000/svg" xmlns:xlink="http://www.w3.org/1999/xlink" x="0px" y="0px"
	 width="8px" height="9.667px" viewBox="0 0 8 9.667" enable-background="new 0 0 8 9.667" xml:space="preserve">
<path fill="#FFFFFF" d="M7.432,0H0.566C0.254,0,0,0.254,0,0.567L1,9.1c0,0.313,0.254,0.567,0.566,0.567h4.865
	C6.746,9.667,7,9.413,7,9.1l1-8.533C8,0.254,7.746,0,7.432,0z M2.536,8.013C2.524,8.014,2.512,8.015,2.5,8.015
	c-0.18,0-0.334-0.136-0.353-0.318L1.563,2.042C1.544,1.848,1.684,1.673,1.88,1.653c0.186-0.018,0.369,0.122,0.389,0.316l0.584,5.655
	C2.872,7.819,2.731,7.993,2.536,8.013z M4.312,7.661c0,0.196-0.159,0.354-0.355,0.354c-0.195,0-0.355-0.159-0.355-0.354V2.006
	c0-0.196,0.159-0.355,0.355-0.355c0.195,0,0.355,0.159,0.355,0.355V7.661z M5.852,7.697C5.834,7.879,5.68,8.015,5.5,8.015
	c-0.012,0-0.024-0.001-0.036-0.002c-0.195-0.02-0.336-0.194-0.316-0.389l0.584-5.655C5.751,1.775,5.933,1.642,6.12,1.653
	c0.195,0.02,0.336,0.194,0.316,0.389L5.852,7.697z"/>
</svg>
