<?xml version="1.0" encoding="utf-8"?>
<!-- Generator: Adobe Illustrator 17.0.0, SVG Export Plug-In . SVG Version: 6.00 Build 0)  -->
<!DOCTYPE svg PUBLIC "-//W3C//DTD SVG 1.1//EN" "http://www.w3.org/Graphics/SVG/1.1/DTD/svg11.dtd">
<svg version="1.1" id="Layer_1" xmlns="http://www.w3.org/2000/svg" xmlns:xlink="http://www.w3.org/1999/xlink" x="0px" y="0px"
	 width="8.385px" height="8.386px" viewBox="0 0 8.385 8.386" enable-background="new 0 0 8.385 8.386" xml:space="preserve">
<g>
	<g>
		<path fill="#FFFFFF" d="M4.217,7.557c-0.261,0-0.472-0.211-0.472-0.472V0.473c0-0.261,0.211-0.473,0.472-0.473
			c0.262,0,0.474,0.211,0.474,0.473v6.612C4.69,7.346,4.478,7.557,4.217,7.557z"/>
	</g>
	<g>
		<g>
			<path fill="#FFFFFF" stroke="#FFFFFF" stroke-width="0.9451" stroke-linecap="round" stroke-miterlimit="10" d="M4.217,0.473"/>
		</g>
		<g>
			<path fill="#FFFFFF" d="M5.323,2.051c-0.121,0-0.242-0.046-0.335-0.139L3.884,0.807c-0.185-0.185-0.185-0.484,0-0.669
				c0.184-0.185,0.483-0.185,0.667,0l1.106,1.106c0.185,0.185,0.185,0.483,0,0.668C5.564,2.005,5.443,2.051,5.323,2.051z"/>
		</g>
	</g>
	<g>
		<path fill="#FFFFFF" d="M3.061,2.051c-0.121,0-0.241-0.046-0.334-0.139c-0.184-0.185-0.184-0.483,0-0.668l1.106-1.106
			c0.185-0.185,0.484-0.185,0.668,0c0.184,0.185,0.184,0.484,0,0.669L3.395,1.913C3.304,2.005,3.183,2.051,3.061,2.051z"/>
	</g>
	<g>
		<g>
			<g>
				<path fill="#FFFFFF" stroke="#FFFFFF" stroke-width="0.9451" stroke-linecap="round" stroke-miterlimit="10" d="M4.217,7.913"/>
			</g>
			<g>
				<path fill="#FFFFFF" d="M4.217,8.386c-0.12,0-0.241-0.046-0.333-0.138c-0.185-0.185-0.185-0.484,0-0.668l1.105-1.106
					c0.186-0.185,0.484-0.185,0.669,0c0.185,0.185,0.185,0.484,0,0.668L4.551,8.248C4.459,8.34,4.338,8.386,4.217,8.386z"/>
			</g>
		</g>
		<g>
			<path fill="#FFFFFF" d="M4.167,8.386c-0.12,0-0.241-0.046-0.334-0.138L2.727,7.141c-0.184-0.184-0.184-0.483,0-0.668
				c0.185-0.185,0.483-0.185,0.668,0l1.106,1.106c0.184,0.184,0.184,0.483,0,0.668C4.409,8.34,4.288,8.386,4.167,8.386z"/>
		</g>
	</g>
	<g>
		<path fill="#FFFFFF" d="M7.912,4.691H1.3c-0.261,0-0.473-0.211-0.473-0.473c0-0.261,0.212-0.472,0.473-0.472h6.612
			c0.262,0,0.473,0.211,0.473,0.472C8.385,4.479,8.174,4.691,7.912,4.691z"/>
	</g>
	<g>
		<g>
			<path fill="#FFFFFF" stroke="#FFFFFF" stroke-width="0.9451" stroke-linecap="round" stroke-miterlimit="10" d="M7.912,4.218"/>
		</g>
		<g>
			<path fill="#FFFFFF" d="M6.807,5.797c-0.121,0-0.241-0.046-0.333-0.139c-0.185-0.185-0.185-0.484,0-0.668l1.104-1.106
				c0.184-0.185,0.484-0.185,0.668,0c0.185,0.184,0.185,0.483,0,0.668L7.141,5.658C7.049,5.75,6.928,5.797,6.807,5.797z"/>
		</g>
	</g>
	<g>
		<path fill="#FFFFFF" d="M7.912,4.64c-0.12,0-0.242-0.046-0.334-0.138L6.474,3.397c-0.185-0.185-0.185-0.483,0-0.668
			c0.184-0.186,0.482-0.186,0.667,0l1.105,1.105c0.185,0.185,0.185,0.484,0,0.668C8.154,4.594,8.033,4.64,7.912,4.64z"/>
	</g>
	<g>
		<g>
			<g>
				<path fill="#FFFFFF" stroke="#FFFFFF" stroke-width="0.9451" stroke-linecap="round" stroke-miterlimit="10" d="M0.473,4.218"/>
			</g>
			<g>
				<path fill="#FFFFFF" d="M1.578,5.797c-0.121,0-0.242-0.046-0.334-0.139L0.138,4.552c-0.184-0.185-0.184-0.484,0-0.668
					c0.185-0.185,0.485-0.185,0.669,0L1.911,4.99c0.185,0.184,0.185,0.483,0,0.668C1.819,5.75,1.699,5.797,1.578,5.797z"/>
			</g>
		</g>
		<g>
			<path fill="#FFFFFF" d="M0.473,4.64c-0.121,0-0.242-0.046-0.335-0.138c-0.184-0.185-0.184-0.483,0-0.668l1.106-1.105
				c0.185-0.186,0.483-0.186,0.667,0c0.185,0.185,0.185,0.483,0,0.668L0.807,4.502C0.715,4.594,0.593,4.64,0.473,4.64z"/>
		</g>
	</g>
</g>
</svg>
