<?xml version="1.0" encoding="utf-8"?>
<!-- Generator: Adobe Illustrator 17.0.0, SVG Export Plug-In . SVG Version: 6.00 Build 0)  -->
<!DOCTYPE svg PUBLIC "-//W3C//DTD SVG 1.1//EN" "http://www.w3.org/Graphics/SVG/1.1/DTD/svg11.dtd">
<svg version="1.1" id="Layer_1" xmlns="http://www.w3.org/2000/svg" xmlns:xlink="http://www.w3.org/1999/xlink" x="0px" y="0px"
	 width="12.597px" height="9.185px" viewBox="0 0 12.597 9.185" enable-background="new 0 0 12.597 9.185" xml:space="preserve">
<path fill="#FFFFFF" d="M5.417,0.003h0.001c1.313-0.05,3.588,0.525,4.779,2.762l1.436-0.556c0.004-0.001,0.007,0,0.011-0.002
	c0.046-0.017,0.096-0.017,0.144-0.025c0.042-0.006,0.084-0.021,0.126-0.02c0.028,0.001,0.056,0.015,0.084,0.02
	c0.061,0.01,0.124,0.018,0.181,0.043c0.002,0.001,0.005,0.001,0.008,0.002c0.037,0.017,0.063,0.047,0.096,0.07
	c0.041,0.028,0.086,0.052,0.121,0.089c0.041,0.044,0.066,0.097,0.096,0.148c0.016,0.028,0.039,0.049,0.051,0.08
	c0.001,0.002,0,0.005,0.001,0.007c0.024,0.065,0.03,0.134,0.035,0.204c0.001,0.023,0.012,0.045,0.011,0.067
	c0,0.016-0.009,0.032-0.011,0.048c-0.008,0.077-0.022,0.152-0.054,0.222c0,0.002,0,0.004-0.001,0.006l-1.323,2.853
	c-0.022,0.045-0.051,0.083-0.079,0.121c-0.008,0.027-0.005,0.055-0.016,0.082c-0.111,0.276-0.377,0.444-0.657,0.444
	c-0.089,0-0.179-0.017-0.266-0.052L6.988,5.323C6.973,5.317,6.964,5.304,6.949,5.297C6.893,5.27,6.841,5.236,6.793,5.194
	c-0.02-0.017-0.039-0.033-0.058-0.052C6.691,5.094,6.656,5.039,6.626,4.979C6.618,4.963,6.606,4.95,6.6,4.934
	C6.598,4.93,6.595,4.926,6.593,4.922c-0.014-0.034-0.01-0.069-0.018-0.104C6.563,4.766,6.548,4.715,6.548,4.661
	c0.001-0.055,0.017-0.105,0.029-0.158c0.009-0.034,0.006-0.069,0.02-0.102c0.002-0.004,0.005-0.006,0.007-0.01
	c0.024-0.057,0.063-0.104,0.101-0.153c0.019-0.024,0.031-0.054,0.053-0.076C6.784,4.136,6.822,4.12,6.853,4.098
	c0.044-0.031,0.085-0.065,0.134-0.086C6.991,4.01,6.994,4.007,6.998,4.005l1.859-0.721C7.721,1.375,5.583,1.419,5.45,1.419
	c-3.843,0-4.024,3.63-4.033,4.011C1.449,6.498,1.736,7.372,2.27,8.029c0.247,0.304,0.2,0.75-0.104,0.997
	C2.035,9.133,1.877,9.185,1.72,9.185c-0.206,0-0.41-0.089-0.55-0.262C0.436,8.019,0.042,6.858,0,5.443
	C0.025,3.561,1.195,0.003,5.417,0.003z"/>
</svg>
