<?xml version="1.0" encoding="utf-8"?>
<!-- Generator: Adobe Illustrator 17.0.0, SVG Export Plug-In . SVG Version: 6.00 Build 0)  -->
<!DOCTYPE svg PUBLIC "-//W3C//DTD SVG 1.1//EN" "http://www.w3.org/Graphics/SVG/1.1/DTD/svg11.dtd">
<svg version="1.1" id="Layer_1" xmlns="http://www.w3.org/2000/svg" xmlns:xlink="http://www.w3.org/1999/xlink" x="0px" y="0px"
	 width="9.347px" height="9.346px" viewBox="0 0 9.347 9.346" enable-background="new 0 0 9.347 9.346" xml:space="preserve">
<path fill="#FFFFFF" d="M9.347,1.966v6.431c0,0-0.247,0.949-1.006,0.949H1.039c0,0-0.59-0.134-1.039-0.781V0.871
	c0,0,0.168-0.674,0.899-0.871h0.981C1.847,0.047,1.825,0.111,1.825,0.182v3.26c0,0.147,0.09,0.265,0.199,0.265H6.85
	c0.109,0,0.198-0.118,0.198-0.265v-3.26c0-0.071-0.022-0.135-0.056-0.182h0.421C7.414,0,9.11,1.509,9.347,1.966z M5.596,3.183H6.5
	V0.501H5.596V3.183z"/>
</svg>
