<?xml version="1.0" encoding="utf-8"?>
<!-- Generator: Adobe Illustrator 17.0.0, SVG Export Plug-In . SVG Version: 6.00 Build 0)  -->
<!DOCTYPE svg PUBLIC "-//W3C//DTD SVG 1.1//EN" "http://www.w3.org/Graphics/SVG/1.1/DTD/svg11.dtd">
<svg version="1.1" id="Layer_1" xmlns="http://www.w3.org/2000/svg" xmlns:xlink="http://www.w3.org/1999/xlink" x="0px" y="0px"
	 width="12.597px" height="9.185px" viewBox="0 0 12.597 9.185" enable-background="new 0 0 12.597 9.185" xml:space="preserve">
<path fill="#FFFFFF" d="M7.18,0.003L7.18,0.003c-1.314-0.05-3.589,0.525-4.78,2.762L0.964,2.209c-0.004-0.001-0.007,0-0.011-0.002
	C0.907,2.19,0.857,2.19,0.809,2.182c-0.042-0.006-0.084-0.021-0.126-0.02c-0.028,0.001-0.056,0.015-0.084,0.02
	c-0.062,0.01-0.124,0.018-0.181,0.043C0.416,2.226,0.413,2.226,0.41,2.227c-0.037,0.017-0.062,0.047-0.096,0.07
	C0.273,2.325,0.229,2.349,0.193,2.386C0.152,2.43,0.127,2.482,0.098,2.534c-0.016,0.028-0.039,0.049-0.051,0.08
	c-0.001,0.002,0,0.005-0.001,0.007c-0.024,0.065-0.03,0.134-0.035,0.204C0.01,2.848-0.001,2.87,0,2.893
	C0,2.909,0.009,2.924,0.011,2.94c0.008,0.077,0.022,0.152,0.054,0.222c0,0.002,0,0.004,0.001,0.006l1.323,2.853
	C1.41,6.066,1.439,6.104,1.468,6.142c0.008,0.027,0.005,0.055,0.016,0.082C1.595,6.499,1.86,6.667,2.141,6.667
	c0.089,0,0.179-0.017,0.266-0.052l3.202-1.292c0.016-0.006,0.024-0.019,0.039-0.026C5.704,5.27,5.756,5.236,5.804,5.194
	c0.019-0.017,0.039-0.033,0.058-0.052C5.905,5.094,5.94,5.039,5.971,4.979C5.979,4.963,5.99,4.95,5.997,4.934
	C5.999,4.93,6.002,4.926,6.004,4.922c0.014-0.034,0.01-0.069,0.017-0.104c0.012-0.052,0.027-0.103,0.027-0.157
	C6.048,4.607,6.032,4.556,6.02,4.503C6.011,4.469,6.014,4.435,6,4.401c-0.002-0.004-0.005-0.006-0.007-0.01
	C5.97,4.335,5.931,4.287,5.893,4.238C5.874,4.214,5.861,4.184,5.84,4.163C5.813,4.136,5.774,4.12,5.743,4.098
	C5.699,4.067,5.658,4.032,5.609,4.012C5.605,4.01,5.603,4.007,5.599,4.005L3.739,3.285c1.137-1.91,3.274-1.866,3.407-1.865
	c3.843,0,4.024,3.63,4.033,4.011c-0.032,1.067-0.319,1.941-0.852,2.599c-0.247,0.304-0.2,0.75,0.104,0.997
	c0.131,0.106,0.289,0.158,0.446,0.158c0.206,0,0.41-0.089,0.55-0.262c0.734-0.904,1.128-2.065,1.17-3.48
	C12.571,3.561,11.401,0.003,7.18,0.003z"/>
</svg>
