<?xml version="1.0" encoding="utf-8"?>
<!-- Generator: Adobe Illustrator 17.0.0, SVG Export Plug-In . SVG Version: 6.00 Build 0)  -->
<!DOCTYPE svg PUBLIC "-//W3C//DTD SVG 1.1//EN" "http://www.w3.org/Graphics/SVG/1.1/DTD/svg11.dtd">
<svg version="1.1" id="Layer_1" xmlns="http://www.w3.org/2000/svg" xmlns:xlink="http://www.w3.org/1999/xlink" x="0px" y="0px"
	 width="294.081px" height="49.354px" viewBox="0 0 294.081 49.354" enable-background="new 0 0 294.081 49.354"
	 xml:space="preserve">
<g>
	<path fill="#E4185D" d="M0,15.943c0-0.61,0.499-1.108,1.082-1.108c0.61,0,1.109,0.498,1.109,1.108v10.619l11.062-11.34
		c0.25-0.222,0.499-0.388,0.859-0.388c0.582,0,1.054,0.526,1.054,1.081c0,0.305-0.139,0.554-0.36,0.776l-6.876,6.82l7.375,9.094
		c0.194,0.25,0.305,0.471,0.305,0.805c0,0.582-0.499,1.108-1.109,1.108c-0.416,0-0.693-0.222-0.887-0.499L6.377,25.01L2.19,29.196
		v4.215c0,0.609-0.499,1.108-1.109,1.108C0.499,34.52,0,34.021,0,33.411V15.943z"/>
	<path fill="#E4185D" d="M19.797,33.272v-17.19c0-0.61,0.499-1.108,1.082-1.108H32.94c0.554,0,0.998,0.443,0.998,0.998
		c0,0.555-0.444,0.998-0.998,0.998H21.988v6.626h9.704c0.554,0,0.998,0.472,0.998,0.998c0,0.555-0.444,0.998-0.998,0.998h-9.704
		v6.793h11.09c0.554,0,0.998,0.443,0.998,0.998c0,0.555-0.444,0.998-0.998,0.998H20.879C20.296,34.381,19.797,33.882,19.797,33.272z
		"/>
	<path fill="#E4185D" d="M38.376,33.272v-17.19c0-0.61,0.499-1.108,1.082-1.108h12.061c0.554,0,0.998,0.443,0.998,0.998
		c0,0.555-0.444,0.998-0.998,0.998H40.566v6.626h9.704c0.554,0,0.998,0.472,0.998,0.998c0,0.555-0.444,0.998-0.998,0.998h-9.704
		v6.793h11.09c0.554,0,0.998,0.443,0.998,0.998c0,0.555-0.444,0.998-0.998,0.998H39.457C38.875,34.381,38.376,33.882,38.376,33.272z
		"/>
	<path fill="#E4185D" d="M56.953,16.082c0-0.61,0.499-1.108,1.082-1.108h6.183c4.38,0,7.264,2.328,7.264,6.154v0.056
		c0,4.187-3.494,6.349-7.625,6.349h-4.713v5.879c0,0.609-0.499,1.108-1.109,1.108c-0.583,0-1.082-0.499-1.082-1.108V16.082z
		 M63.94,25.536c3.216,0,5.323-1.719,5.323-4.27v-0.055c0-2.773-2.079-4.215-5.212-4.215h-4.907v8.539H63.94z"/>
	<path fill="#E4185D" d="M80.605,16.997h-5.628c-0.554,0-1.026-0.443-1.026-0.998s0.472-1.025,1.026-1.025h13.475
		c0.555,0,1.026,0.471,1.026,1.025s-0.471,0.998-1.026,0.998h-5.628v16.414c0,0.609-0.499,1.108-1.109,1.108
		c-0.61,0-1.109-0.499-1.109-1.108V16.997z"/>
	<path fill="#E4185D" d="M93.443,15.943c0-0.61,0.499-1.108,1.081-1.108c0.61,0,1.109,0.498,1.109,1.108v7.652h11.201v-7.652
		c0-0.61,0.499-1.108,1.109-1.108c0.582,0,1.081,0.498,1.081,1.108v17.468c0,0.609-0.499,1.108-1.081,1.108
		c-0.61,0-1.109-0.499-1.109-1.108v-7.764H95.634v7.764c0,0.609-0.499,1.108-1.109,1.108c-0.582,0-1.081-0.499-1.081-1.108V15.943z"
		/>
	<path fill="#E4185D" d="M114.517,33.272v-17.19c0-0.61,0.499-1.108,1.082-1.108h12.061c0.554,0,0.998,0.443,0.998,0.998
		c0,0.555-0.444,0.998-0.998,0.998h-10.952v6.626h9.704c0.555,0,0.999,0.472,0.999,0.998c0,0.555-0.444,0.998-0.999,0.998h-9.704
		v6.793h11.09c0.554,0,0.998,0.443,0.998,0.998c0,0.555-0.444,0.998-0.998,0.998h-12.199
		C115.016,34.381,114.517,33.882,114.517,33.272z"/>
	<path fill="#E4185D" d="M158.696,49.354c-13.616,0-23.884-10.548-23.884-24.534v-0.144C134.812,10.84,145.398,0,158.913,0
		c6.825,0,11.784,1.806,17.115,6.231c0.222,0.194,0.641,0.647,0.641,1.218c0,0.716-0.712,1.394-1.465,1.394
		c-0.382,0-0.749-0.194-1.012-0.362c-4.738-4.186-9.478-6.052-15.352-6.052c-11.944,0-20.952,9.503-20.952,22.106v0.142
		c0,12.477,9.203,22.249,20.952,22.249c6.214,0,10.984-1.943,15.951-6.499c0.226-0.224,0.534-0.42,0.846-0.42
		c0.655,0,1.322,0.666,1.322,1.32c0,0.523-0.341,0.857-0.446,0.946C171.067,47.245,165.748,49.354,158.696,49.354z"/>
	<path fill="#E4185D" d="M153.557,15.943c0-0.61,0.499-1.108,1.082-1.108c0.61,0,1.109,0.498,1.109,1.108v7.652h11.201v-7.652
		c0-0.61,0.499-1.108,1.109-1.108c0.582,0,1.081,0.498,1.081,1.108v17.468c0,0.609-0.499,1.108-1.081,1.108
		c-0.61,0-1.109-0.499-1.109-1.108v-7.764h-11.201v7.764c0,0.609-0.499,1.108-1.109,1.108c-0.583,0-1.082-0.499-1.082-1.108V15.943z
		"/>
	<path fill="#E4185D" d="M173.439,32.938l7.874-17.217c0.277-0.609,0.693-0.971,1.386-0.971h0.111c0.665,0,1.109,0.361,1.358,0.971
		l7.874,17.189c0.083,0.194,0.139,0.389,0.139,0.555c0,0.582-0.471,1.054-1.054,1.054c-0.527,0-0.887-0.36-1.081-0.804l-2.024-4.465
		h-10.646l-2.024,4.52c-0.194,0.472-0.555,0.749-1.054,0.749c-0.555,0-0.998-0.444-0.998-0.998
		C173.3,33.354,173.328,33.161,173.439,32.938z M187.162,27.255l-4.463-9.925l-4.464,9.925H187.162z"/>
	<path fill="#E4185D" d="M196.564,15.943c0-0.61,0.499-1.108,1.081-1.108c0.61,0,1.109,0.498,1.109,1.108v17.468
		c0,0.609-0.499,1.108-1.109,1.108c-0.582,0-1.081-0.499-1.081-1.108V15.943z"/>
	<path fill="#E4185D" d="M204.438,15.972c0-0.582,0.499-1.082,1.081-1.082h0.305c0.499,0,0.804,0.25,1.109,0.639l11.783,15.026
		V15.916c0-0.583,0.471-1.081,1.081-1.081c0.582,0,1.054,0.498,1.054,1.081v17.522c0,0.582-0.416,1.025-0.998,1.025h-0.111
		c-0.472,0-0.804-0.277-1.137-0.665l-12.033-15.388v15.027c0,0.582-0.472,1.081-1.082,1.081c-0.582,0-1.054-0.499-1.054-1.081
		V15.972z"/>
	<path fill="#E4185D" d="M227.008,31.331c0.749,0,1.303,0.555,1.303,1.303v0.555c0,0.749-0.555,1.331-1.303,1.331
		c-0.776,0-1.331-0.582-1.331-1.331v-0.555C225.678,31.886,226.232,31.331,227.008,31.331z"/>
	<path fill="#E4185D" d="M231.168,24.732v-0.056c0-5.489,4.104-10.036,9.815-10.036c3.133,0,5.129,1.026,6.931,2.522
		c0.222,0.194,0.443,0.5,0.443,0.888c0,0.582-0.526,1.081-1.109,1.081c-0.305,0-0.554-0.139-0.721-0.25
		c-1.497-1.33-3.188-2.217-5.573-2.217c-4.297,0-7.514,3.492-7.514,7.957v0.055c0,4.492,3.244,8.013,7.514,8.013
		c2.412,0,4.104-0.831,5.767-2.356c0.167-0.166,0.416-0.305,0.693-0.305c0.555,0,1.054,0.498,1.054,1.053
		c0,0.333-0.167,0.61-0.361,0.777c-1.913,1.746-4.02,2.855-7.208,2.855C235.299,34.714,231.168,30.306,231.168,24.732z"/>
	<path fill="#E4185D" d="M251.077,24.732v-0.056c0-5.351,4.02-10.036,9.926-10.036c5.905,0,9.87,4.63,9.87,9.981v0.055
		c0,5.352-4.02,10.037-9.926,10.037C255.042,34.714,251.077,30.083,251.077,24.732z M268.599,24.732v-0.056
		c0-4.408-3.216-8.012-7.652-8.012c-4.436,0-7.597,3.549-7.597,7.957v0.055c0,4.408,3.216,8.013,7.652,8.013
		C265.439,32.689,268.599,29.141,268.599,24.732z"/>
	<path fill="#E4185D" d="M275.504,15.972c0-0.582,0.499-1.082,1.082-1.082h0.25c0.471,0,0.804,0.25,1.026,0.582l6.931,10.426
		l6.931-10.426c0.222-0.359,0.583-0.582,1.026-0.582h0.249c0.583,0,1.082,0.5,1.082,1.082v17.439c0,0.609-0.499,1.108-1.082,1.108
		c-0.61,0-1.109-0.526-1.109-1.108V18.938l-6.21,9.121c-0.25,0.36-0.527,0.555-0.915,0.555c-0.388,0-0.693-0.194-0.942-0.555
		l-6.183-9.094v14.473c0,0.609-0.471,1.081-1.081,1.081c-0.582,0-1.054-0.472-1.054-1.081V15.972z"/>
</g>
</svg>
