<?xml version="1.0" encoding="utf-8"?>
<!-- Generator: Adobe Illustrator 17.0.0, SVG Export Plug-In . SVG Version: 6.00 Build 0)  -->
<!DOCTYPE svg PUBLIC "-//W3C//DTD SVG 1.1//EN" "http://www.w3.org/Graphics/SVG/1.1/DTD/svg11.dtd">
<svg version="1.1" id="Layer_1" xmlns="http://www.w3.org/2000/svg" xmlns:xlink="http://www.w3.org/1999/xlink" x="0px" y="0px"
	 width="6.652px" height="8.596px" viewBox="0 0 6.652 8.596" enable-background="new 0 0 6.652 8.596" xml:space="preserve">
<path fill="#FFFFFF" d="M6.642,3.556v-1.37C6.616,1.765,6.457,1.422,6.457,1.422L5.43,0.316c-0.869-0.711-1.607,0-1.607,0
	l-3.371,3.45c-0.527,0.58-0.448,0.79-0.448,0.79v2.555c0.448,0.843,1.238,1.344,1.238,1.344c0.579,0.316,1.027,0,1.027,0
	l4.162-4.152C6.721,3.893,6.642,3.556,6.642,3.556z M0.55,4.682c0,0,0.104-0.244,0.289-0.53l1.58-1.524v1.949l-1.81,1.798
	L0.55,4.682z M2.051,7.79c0,0-0.211,0.316-0.632,0L0.707,7.184l2.081-2.002l0.975,0.922L2.051,7.79z"/>
</svg>
