<?xml version="1.0" encoding="utf-8"?>
<!-- Generator: Adobe Illustrator 17.0.0, SVG Export Plug-In . SVG Version: 6.00 Build 0)  -->
<!DOCTYPE svg PUBLIC "-//W3C//DTD SVG 1.1//EN" "http://www.w3.org/Graphics/SVG/1.1/DTD/svg11.dtd">
<svg version="1.1" id="Layer_1" xmlns="http://www.w3.org/2000/svg" xmlns:xlink="http://www.w3.org/1999/xlink" x="0px" y="0px"
	 width="11.428px" height="10.265px" viewBox="0 0 11.428 10.265" enable-background="new 0 0 11.428 10.265" xml:space="preserve">
<g>
	<path fill="#FFFFFF" d="M5.481,3.82C5.329,3.714,5.226,3.539,5.222,3.339l-0.013-2.73C5.204,0.279,5.466,0.006,5.797,0
		c0.33-0.008,0.604,0.256,0.609,0.587l0.013,2.729C6.426,3.648,6.162,3.92,5.832,3.926C5.702,3.929,5.581,3.889,5.481,3.82z"/>
	<g>
		<path fill="#FFFFFF" d="M7.05,2.915l0.004,0.673c0.012,0.679-0.531,1.241-1.232,1.253c-0.25,0-0.492-0.076-0.7-0.219
			c-0.325-0.226-0.523-0.596-0.53-0.998L4.58,1.202L3.789,0.655c0,0-2.818,4.167-3.543,5.214C-0.48,6.916,0.633,8.007,0.633,8.007
			l2.865,1.985C4.637,10.779,5.56,9.617,5.56,9.617l3.62-5.228L7.05,2.915z"/>
		<path fill="#FFFFFF" d="M5.222,3.339c0.004,0.2,0.106,0.376,0.259,0.482c0.098,0.066,0.213,0.106,0.34,0.106
			c0.004,0,0.007,0,0.012,0C6.162,3.92,6.426,3.648,6.419,3.317L6.416,2.458L5.214,1.626L5.222,3.339z"/>
	</g>
	<path fill="#FFFFFF" d="M9.368,3.724C9,3.47,8.51,3.283,8.21,2.978c0.476-0.734,1.757-0.042,2.299,0.511
		c1.152,1.172,1.263,2.283,0.089,3.02C9.902,6.944,9.245,6.103,9.336,5.453c0.051-0.361,0.385-0.71,0.419-1.073
		c0.042-0.439-0.146-0.396-0.4-0.73"/>
</g>
</svg>
